<?xml version="1.0" encoding="utf-8"?>
<!-- Generator: Adobe Illustrator 16.0.0, SVG Export Plug-In . SVG Version: 6.00 Build 0)  -->
<!DOCTYPE svg PUBLIC "-//W3C//DTD SVG 1.1//EN" "http://www.w3.org/Graphics/SVG/1.1/DTD/svg11.dtd">
<svg version="1.1" id="Layer_1" xmlns="http://www.w3.org/2000/svg" xmlns:xlink="http://www.w3.org/1999/xlink" x="0px" y="0px"
	 width="100px" height="100px" viewBox="0 0 100 100" enable-background="new 0 0 100 100" xml:space="preserve">
<g>
	<g>
		<path fill="#FFFFFF" d="M20.625,49.982c-0.003,1.466,0.564,2.846,1.596,3.879l44.543,44.541c1.029,1.03,2.402,1.598,3.867,1.598
			c1.466,0,2.839-0.567,3.869-1.598l3.277-3.275c1.029-1.031,1.598-2.404,1.598-3.87c0-1.464-0.568-2.837-1.598-3.867l-37.41-37.41
			L77.735,12.61c2.133-2.131,2.133-5.602,0-7.736l-3.276-3.276C73.43,0.567,72.055,0,70.59,0s-2.839,0.567-3.868,1.598l-44.501,44.5
			C21.189,47.13,20.622,48.509,20.625,49.982z"/>
	</g>
</g>
</svg>
