<?xml version="1.0" encoding="utf-8"?>
<!-- Generator: Adobe Illustrator 16.0.0, SVG Export Plug-In . SVG Version: 6.00 Build 0)  -->
<!DOCTYPE svg PUBLIC "-//W3C//DTD SVG 1.1//EN" "http://www.w3.org/Graphics/SVG/1.1/DTD/svg11.dtd">
<svg version="1.1" id="Layer_1" xmlns="http://www.w3.org/2000/svg" xmlns:xlink="http://www.w3.org/1999/xlink" x="0px" y="0px"
	 width="100px" height="100px" viewBox="0 0 100 100" enable-background="new 0 0 100 100" xml:space="preserve">
<g>
	<g>
		<path fill="#FFFFFF" d="M77.779,46.098l-44.501-44.5C32.249,0.567,30.875,0,29.41,0c-1.465,0-2.839,0.567-3.869,1.598
			l-3.277,3.276c-2.133,2.135-2.133,5.605,0,7.736l37.368,37.369l-37.41,37.41c-1.029,1.03-1.598,2.403-1.598,3.867
			c0,1.466,0.568,2.839,1.598,3.87l3.277,3.275c1.03,1.03,2.403,1.598,3.869,1.598c1.465,0,2.839-0.567,3.868-1.598l44.542-44.541
			c1.031-1.033,1.599-2.413,1.596-3.879C79.378,48.509,78.811,47.13,77.779,46.098z"/>
	</g>
</g>
</svg>
